<svg height="150" viewBox="0 0 150 150" width="150" xmlns="http://www.w3.org/2000/svg"
     xmlns:xlink="http://www.w3.org/1999/xlink">
  <defs>
    <linearGradient id="lhk5jkl1rd" x1="33.679%" x2="60.373%" y1="-4.477%" y2="151.282%">
      <stop offset="0%" stop-color="#C7D7F6" stop-opacity="0"/>
      <stop offset="100%" stop-color="#DADFE9"/>
    </linearGradient>
    <linearGradient id="572ytwjeke" x1="21.246%" x2="21.246%" y1="-11.801%" y2="89.296%">
      <stop offset="0%" stop-color="#95A6C4" stop-opacity="0"/>
      <stop offset="100%" stop-color="#95A6C4"/>
    </linearGradient>
    <linearGradient id="onq0qxnitf" x1="21.246%" x2="21.246%" y1="66.597%" y2="0%">
      <stop offset="0%" stop-color="#95A6C4" stop-opacity="0"/>
      <stop offset="100%" stop-color="#95A6C4"/>
    </linearGradient>
    <linearGradient id="jh3pfxvtlh" x1="22.567%" x2="67.436%" y1="44.193%" y2="60.796%">
      <stop offset="0%" stop-color="#C7D7F6" stop-opacity="0"/>
      <stop offset="100%" stop-color="#DADFE9"/>
    </linearGradient>
    <linearGradient id="g0rpukma2j" x1="21.246%" x2="54.211%" y1="46.743%" y2="51.121%">
      <stop offset="0%" stop-color="#95A6C4" stop-opacity="0"/>
      <stop offset="100%" stop-color="#95A6C4"/>
    </linearGradient>
    <radialGradient cx="49.748%" cy="50.133%" fx="49.748%" fy="50.133%" gradientTransform="matrix(.08204 0 0 1 .457 0)" id="9x3e1mfiqc"
                    r="432.449%">
      <stop offset="0%" stop-color="#2A001C"/>
      <stop offset="43%" stop-color="#340C28" stop-opacity=".94"/>
      <stop offset="66%" stop-color="#58364F" stop-opacity=".75"/>
      <stop offset="85%" stop-color="#947E92" stop-opacity=".43"/>
      <stop offset="100%" stop-color="#E3DCEA" stop-opacity="0"/>
    </radialGradient>
    <circle cx="75" cy="75" id="samj11djna" r="75"/>
    <path d="M54.377 29.526c0-1.302-1.057-2.357-2.36-2.357H34.1v-5.678c0-1.301-1.057-2.356-2.36-2.356H20.338c-1.303 0-2.36 1.055-2.36 2.356v5.726H.087c-1.304 0-2.36 1.054-2.36 2.356v5.702c0 1.3 1.056 2.356 2.36 2.356h51.93c1.303 0 2.36-1.055 2.36-2.356v-5.75z"
          id="8wpk4rewxg"/>
  </defs>
  <g fill="none" fill-rule="evenodd">
    <g>
      <g>
        <g>
          <g fill="#2A3F6E" fill-rule="nonzero" opacity=".4">
            <path
              d="M8.571 6.667h5.239L8.57 1.429v5.238M1.905 0h7.619l5.714 5.714v11.429c0 1.052-.853 1.905-1.905 1.905H1.905C.848 19.048 0 18.19 0 17.143V1.905C0 .848.848 0 1.905 0m8.571 15.238v-1.905H1.905v1.905h8.571m2.857-3.81V9.525H1.905v1.905h11.428z"
              transform="translate(-608 -137) translate(443 118) translate(165 19) translate(45.238 51.19)"/>
          </g>
          <g fill="#2A3F6E" fill-rule="nonzero" opacity=".4">
            <path
              d="M8.571 6.667h5.239L8.57 1.429v5.238M1.905 0h7.619l5.714 5.714v11.429c0 1.052-.853 1.905-1.905 1.905H1.905C.848 19.048 0 18.19 0 17.143V1.905C0 .848.848 0 1.905 0m8.571 15.238v-1.905H1.905v1.905h8.571m2.857-3.81V9.525H1.905v1.905h11.428z"
              transform="translate(-608 -137) translate(443 118) translate(165 19) translate(76.19 53.571)"/>
          </g>
          <g fill="#2A3F6E" fill-rule="nonzero">
            <path
              d="M10.714 8.333h6.548l-6.548-6.547v6.547M2.381 0h9.524l7.143 7.143v14.286c0 1.315-1.066 2.38-2.381 2.38H2.38C1.06 23.81 0 22.74 0 21.43V2.38C0 1.06 1.06 0 2.381 0m10.714 19.048v-2.381H2.381v2.38h10.714m3.572-4.761v-2.381H2.38v2.38h14.286z"
              transform="translate(-608 -137) translate(443 118) translate(165 19) translate(58.333 46.429)"/>
          </g>
          <g transform="translate(-608 -137) translate(443 118) translate(165 19)">
            <mask fill="#fff" id="u1msoj1rwb">
              <use xlink:href="#samj11djna"/>
            </mask>
            <g mask="url(#u1msoj1rwb)">
              <g transform="translate(26.19 16.667)">
                <ellipse cx="43.782" cy="113.99" fill="url(#9x3e1mfiqc)" fill-rule="nonzero" opacity=".178" rx="43.078"
                         ry="3.534"/>
                <path d="M19.611 49.644v54.615c0 4.441 3.6 8.045 8.05 8.058h32.22c4.458 0 8.072-3.608 8.072-8.058V49.644H19.61z" fill="#FFF"
                      fill-rule="nonzero"/>
                <path d="M19.611 49.644v54.615c0 4.441 3.6 8.045 8.05 8.058h32.22c4.458 0 8.072-3.608 8.072-8.058V49.644H19.61z"
                      fill="url(#lhk5jkl1rd)"/>
                <path d="M27.495 49.644v62.673h33.542c3.467 0 6.278-2.806 6.278-6.267V49.644h-39.82z"
                      fill="url(#572ytwjeke)" opacity=".571"/>
                <path d="M19.611 49.644L67.315 49.644 67.315 84.208 19.611 84.208z" fill="url(#onq0qxnitf)"
                      opacity=".755"/>
                <path d="M19.632 50.036v54.616c0 4.44 3.6 8.045 8.05 8.058h32.22c4.458 0 8.072-3.608 8.072-8.058V50.036H19.632z" stroke="#2A3F6E"
                      stroke-width="4"/>
                <g transform="rotate(100 43.671 45.016)">
                  <mask fill="#fff" id="6an1t1jtqi">
                    <use xlink:href="#8wpk4rewxg"/>
                  </mask>
                  <use fill="#FFF" transform="rotate(-50 26.052 28.383)" xlink:href="#8wpk4rewxg"/>
                  <path d="M54.377 29.526c0-1.302-1.057-2.357-2.36-2.357H34.1v-5.678c0-1.301-1.057-2.356-2.36-2.356H20.338c-1.303 0-2.36 1.055-2.36 2.356v5.726H.087c-1.304 0-2.36 1.054-2.36 2.356v5.702c0 1.3 1.056 2.356 2.36 2.356h51.93c1.303 0 2.36-1.055 2.36-2.356v-5.75z"
                        fill="url(#jh3pfxvtlh)"
                        mask="url(#6an1t1jtqi)" transform="rotate(-50 26.052 28.383)"/>
                  <path d="M61.354 25.445c0-1.302-1.057-2.357-2.36-2.357H41.078V17.41c0-1.301-1.057-2.356-2.36-2.356H27.317c-1.304 0-2.36 1.055-2.36 2.356v5.726H7.065c-1.304 0-2.36 1.054-2.36 2.356v5.702c0 1.3 1.056 2.356 2.36 2.356h51.929c1.303 0 2.36-1.055 2.36-2.356v-5.75z"
                        fill="url(#g0rpukma2j)"
                        mask="url(#6an1t1jtqi)" opacity=".439" transform="rotate(-50 33.03 24.302)"/>
                </g>
                <path d="M44.33 12.156c.997-.836 2.485-.705 3.323.294l11.515 13.724 4.35-3.65c.997-.836 2.485-.705 3.322.294l7.329 8.733c.838 1 .709 2.487-.288 3.323l-4.386 3.68 11.5 13.706c.839 1 .71 2.487-.287 3.323l-4.368 3.665c-.997.837-2.484.705-3.322-.293l-33.38-39.78c-.837-1-.708-2.487.288-3.323l4.404-3.696z" stroke="#2A3F6E"
                      stroke-width="4"/>
                <path d="M34.835 62.72h3.012c.552 0 1 .447 1 1v34.19c0 .552-.448 1-1 1h-3.012c-.553 0-1-.448-1-1V63.72c0-.553.447-1 1-1zM49.872 62.72h3.013c.552 0 1 .447 1 1v34.19c0 .552-.448 1-1 1h-3.013c-.552 0-1-.448-1-1V63.72c0-.553.448-1 1-1z" fill="#FFF"
                      fill-rule="nonzero"/>
              </g>
            </g>
          </g>
        </g>
      </g>
    </g>
  </g>
</svg>
